## 6.5.1 双声道合并单声道

stereo => mono 模式
```shell
ffmpeg -i input.aac -ac 1 out.aac
```
转换前，音频是 stereo 布局方式（FL 和 FR 两个声道），通过 ac 转换称单声道 「mono 布局」。
转换前左右耳都可以听到声音，转换后依然可以左右耳听到声音，知识布局变成了「中央布局」, 如下：

#### stereo 
```shell
Duration: 00:21:44.22, bitrate: 123 kb/s
    Stream #0:0: Audio: aac (LC), 44100 Hz, stereo, fltp, 123 kb/s
   1.64 M-A:  0.000 fd=   0 aq=   20KB vq=    0KB sq=    0B f=0/0
```

#### mono
```text
Duration: 00:20:48.00, bitrate: 70 kb/s
    Stream #0:0: Audio: aac (LC), 44100 Hz, mono, fltp, 70 kb/s
   1.44 M-A:  0.000 fd=   0 aq=   13KB vq=    0KB sq=    0B f=0/0  
```

[下一节](./6.5.2.md) 将双声道拆分称左耳于右耳两个音频，每个耳朵只能听到一个声道的声音。